<svg viewBox="0 0 512 512" xmlns="http://www.w3.org/2000/svg" xmlns:xlink="http://www.w3.org/1999/xlink" id="Capa_1" overflow="hidden"><g><path d="M336 152 269.872 120 200 120C186.768 120 176 109.232 176 96L176 32C176 18.768 186.768 8 200 8L312 8C325.232 8 336 18.768 336 32L336 152Z" fill="#FFA64D"/><path d="M312 424 200 424C186.768 424 176 413.232 176 400L176 280 242.128 312 312 312C325.232 312 336 322.768 336 336L336 400C336 413.232 325.232 424 312 424Z" fill="#FFA64D"/></g><g><path d="M477.088 160.104C475.68 158.872 474.192 157.784 472.592 156.816 496.136 142.872 512 117.288 512 88 512 43.888 476.112 8 432 8 387.888 8 352 43.888 352 88 352 125.392 377.824 156.784 412.544 165.512L309.16 202.52C301.032 205.424 294.568 211.304 290.952 219.056 287.384 226.712 287.032 235.28 289.96 243.184 294.704 256.016 307.04 264 320.144 264 323.76 264 327.44 263.392 331.032 262.104L376 246 376 288 376 296 376 444.688 359.32 461.368C354.664 466.016 352 472.456 352 479.032 352 492.8 363.2 504 376.968 504L408.968 504 416 504 480 504C493.232 504 504 493.232 504 480L504 448 504 440 504 296 504 288 504 208C504 187.72 493.344 169.928 477.088 160.104ZM471.032 178.368C472.464 182.24 472.296 186.44 470.544 190.184 468.744 194.032 465.52 196.96 461.44 198.416L423.624 211.952 412.704 182.44 450.36 168.96C451.144 168.68 451.936 168.496 452.728 168.336 458.224 168.984 463.288 170.752 467.824 173.336 469.16 174.792 470.312 176.424 471.032 178.368ZM368 88C368 52.712 396.712 24 432 24 467.288 24 496 52.712 496 88 496 123.288 467.288 152 432 152 396.712 152 368 123.288 368 88ZM325.64 247.032C317.28 250.032 307.992 245.808 304.968 237.624 303.536 233.752 303.704 229.552 305.456 225.808 307.256 221.96 310.48 219.032 314.56 217.576L397.648 187.832 408.568 217.344 325.64 247.032ZM368 479.032C368 476.672 368.96 474.36 370.632 472.688L387.312 456 396.688 456 391.32 461.368C386.664 466.016 384 472.456 384 479.032 384 482.2 384.656 485.208 385.736 488L376.968 488C372.024 488 368 483.976 368 479.032ZM488 480C488 484.416 484.408 488 480 488L416 488 408.968 488C404.024 488 400 483.976 400 479.032 400 476.672 400.96 474.36 402.632 472.688L419.312 456 488 456 488 480ZM488 440 424 440 424 424 408 424 408 440 392 440 392 296 408 296 408 408 424 408 424 296 488 296 488 440ZM488 280 392 280 392 240.272 466.84 213.48C474.968 210.576 481.432 204.696 485.048 196.944 485.344 196.312 485.48 195.64 485.736 195 487.128 199.096 488 203.432 488 208L488 280Z" fill="#333333"/><path d="M222.04 243.184C224.968 235.272 224.616 226.704 221.048 219.048 217.432 211.296 210.968 205.416 202.84 202.512L99.456 165.504C134.176 156.784 160 125.392 160 88 160 43.888 124.112 8 80 8 35.888 8 0 43.888 0 88 0 117.288 15.872 142.88 39.408 156.816 37.816 157.776 36.336 158.864 34.928 160.088 18.664 169.92 8 187.712 8 208L8 288 8 296 8 440 8 448 8 480C8 493.232 18.768 504 32 504L96 504 103.032 504 135.032 504C148.8 504 160 492.8 160 479.032 160 472.456 157.336 466.016 152.68 461.376L136 444.688 136 296 136 288 136 246 180.976 262.096C184.568 263.384 188.24 263.992 191.864 263.992 204.96 263.992 217.296 256.008 222.04 243.184ZM50.552 198.424C46.48 196.968 43.248 194.04 41.448 190.192 39.704 186.448 39.528 182.248 40.96 178.368 41.68 176.424 42.832 174.8 44.16 173.344 48.704 170.752 53.768 168.984 59.264 168.344 60.056 168.504 60.848 168.688 61.632 168.968L99.288 182.448 88.368 211.96 50.552 198.424ZM16 88C16 52.712 44.712 24 80 24 115.288 24 144 52.712 144 88 144 123.288 115.288 152 80 152 44.712 152 16 123.288 16 88ZM24 296 88 296 88 440 24 440 24 296ZM96 488 32 488C27.592 488 24 484.416 24 480L24 456 92.688 456 109.376 472.696C111.04 474.36 112 476.672 112 479.032 112 483.976 107.976 488 103.032 488L96 488ZM144 479.032C144 483.976 139.976 488 135.032 488L126.264 488C127.344 485.208 128 482.2 128 479.032 128 472.456 125.336 466.016 120.68 461.376L115.312 456 124.688 456 141.376 472.696C143.04 474.36 144 476.672 144 479.032ZM120 440 104 440 104 296 120 296 120 440ZM120 280 24 280 24 208C24 203.432 24.864 199.096 26.264 195 26.512 195.648 26.656 196.312 26.952 196.944 30.568 204.696 37.032 210.576 45.16 213.48L120 240.272 120 280ZM207.032 237.632C204.008 245.808 194.72 250.024 186.36 247.032L103.432 217.352 114.352 187.84 197.44 217.584C201.512 219.04 204.744 221.968 206.544 225.816 208.296 229.56 208.472 233.76 207.032 237.632Z" fill="#333333"/><rect x="208" y="40" width="96" height="16" fill="#333333"/><rect x="288" y="72" width="16" height="16" fill="#333333"/><rect x="208" y="72" width="64" height="16" fill="#333333"/><rect x="208" y="376" width="64" height="16" fill="#333333"/><rect x="288" y="376" width="16" height="16" fill="#333333"/><rect x="208" y="344" width="96" height="16" fill="#333333"/></g><g></g><g></g><g></g><g></g><g></g><g></g><g></g><g></g><g></g><g></g><g></g><g></g><g></g><g></g><g></g></svg>