<svg viewBox="0 0 496 496" xmlns="http://www.w3.org/2000/svg" xmlns:xlink="http://www.w3.org/1999/xlink" id="Capa_1" overflow="hidden"><path d="M248 456.028C305.44 456.028 352 409.468 352 352.028 352 343.756 350.992 335.724 349.168 328.004 248.056 327.564 247.176 304.028 160 304.028L155.424 304.684C148.136 318.884 144 334.964 144 352.028 144 409.468 190.56 456.028 248 456.028Z" fill="#FFA64D"/><g><path d="M381.432 218.596C364.384 201.548 330.696 205.38 288 228.78L288 184.028 304 184.028 304 136.028 288 136.028 288 88.028C288 83.62 291.584 80.028 296 80.028L313.472 80.028C316.784 89.316 325.584 96.028 336 96.028 349.232 96.028 360 85.26 360 72.028 360 58.796 349.232 48.028 336 48.028 325.584 48.028 316.784 54.74 313.472 64.028L296 64.028C282.768 64.028 272 74.796 272 88.028L272 136.028 256 136.028 256 46.556C265.288 43.244 272 34.444 272 24.028 272 10.796 261.232 0.028 248 0.028 234.768 0.028 224 10.796 224 24.028 224 34.444 230.712 43.244 240 46.556L240 136.028 224 136.028 224 72.028C224 58.796 213.232 48.028 200 48.028L182.528 48.028C179.216 38.74 170.416 32.028 160 32.028 146.768 32.028 136 42.796 136 56.028 136 69.26 146.768 80.028 160 80.028 170.416 80.028 179.216 73.316 182.528 64.028L200 64.028C204.416 64.028 208 67.62 208 72.028L208 136.028 192 136.028 192 184.028 208 184.028 208 228.78C165.304 205.388 131.624 201.54 114.568 218.596 99.6 233.564 100.656 261.732 117.544 297.916 122.88 309.348 129.696 321.244 137.6 333.324 136.576 339.428 136 345.668 136 352.028 136 358.644 136.688 365.1 137.792 371.404L137.304 371.084C103.368 423.012 94.864 465.772 114.568 485.46 121.576 492.468 131.48 495.964 143.744 495.964 157.672 495.964 174.64 491.46 193.888 482.476 205.352 477.124 217.288 470.284 229.4 462.348 235.464 463.372 241.656 464.028 248 464.028 254.344 464.028 260.536 463.372 266.592 462.356 278.704 470.292 290.64 477.132 302.104 482.484 321.344 491.46 338.312 495.972 352.248 495.972 364.512 495.972 374.416 492.468 381.424 485.468 401.12 465.78 392.624 423.028 358.696 371.108L358.192 371.436C359.312 365.108 360 358.652 360 352.028 360 345.668 359.424 339.428 358.4 333.316 366.304 321.244 373.12 309.34 378.456 297.908 395.344 261.732 396.4 233.556 381.432 218.596ZM336 64.028C340.416 64.028 344 67.62 344 72.028 344 76.436 340.416 80.028 336 80.028 331.584 80.028 328 76.436 328 72.028 328 67.62 331.584 64.028 336 64.028ZM248 16.028C252.416 16.028 256 19.62 256 24.028 256 28.436 252.416 32.028 248 32.028 243.584 32.028 240 28.436 240 24.028 240 19.62 243.584 16.028 248 16.028ZM160 64.028C155.584 64.028 152 60.436 152 56.028 152 51.62 155.584 48.028 160 48.028 164.416 48.028 168 51.62 168 56.028 168 60.436 164.416 64.028 160 64.028ZM256 184.028 256 168.028 208 168.028 208 152.028 288 152.028 288 168.028 272 168.028 272 176.028 272 184.028 272 258.916 277.536 260.708C310.104 271.236 333.888 297.78 341.432 329.996 327.16 350.916 309.272 372.364 288.8 392.836 275.472 406.164 261.736 418.348 247.992 429.212 234.256 418.348 220.512 406.156 207.184 392.836 186.712 372.364 168.824 350.916 154.552 329.996 162.096 297.78 185.88 271.236 218.448 260.708L224 258.916 224 184.028 256 184.028ZM132.048 291.148C118.616 262.372 116.312 239.484 125.88 229.908 137.896 217.884 169.888 224.74 208 247.18L208 247.436C177.584 259.028 154.432 282.884 143.312 312.244 139.088 305.076 135.248 298.004 132.048 291.148ZM195.88 404.148C208.584 416.852 221.68 428.596 234.832 439.196 231.896 441.324 228.968 443.412 226.056 445.404 184.272 435.58 152.968 398.46 152.096 353.924 164.832 370.836 179.552 387.812 195.88 404.148ZM187.12 467.98C158.36 481.396 135.456 483.716 125.888 474.148 113.808 462.068 120.944 429.732 143.384 391.668 154.744 421.54 178.48 445.276 208.352 456.644 201.136 460.9 194.024 464.764 187.12 467.98ZM370.12 474.148C360.552 483.708 337.648 481.412 308.888 467.98 301.984 464.764 294.872 460.9 287.664 456.644 317.536 445.276 341.264 421.54 352.624 391.668 375.064 429.732 382.2 462.068 370.12 474.148ZM269.944 445.396C267.032 443.404 264.104 441.316 261.168 439.188 274.32 428.588 287.416 416.844 300.12 404.14 316.456 387.812 331.176 370.828 343.904 353.916 343.032 398.452 311.728 435.58 269.944 445.396ZM363.952 291.148C360.752 298.012 356.912 305.084 352.688 312.244 341.568 282.884 318.408 259.028 288 247.436L288 247.18C326.12 224.732 358.112 217.9 370.12 229.908 379.688 239.476 377.384 262.372 363.952 291.148Z" fill="#3F3A34"/><rect x="440" y="64.028" width="16" height="24" fill="#3F3A34"/><rect x="414.547" y="74.583" width="16" height="24" fill="#3F3A34" transform="matrix(-0.7072 0.707 -0.707 -0.7072 782.59 -150.929)"/><rect x="400" y="104.028" width="24" height="16" fill="#3F3A34"/><rect x="410.538" y="129.46" width="24" height="16" fill="#3F3A34" transform="matrix(-0.7071 0.7071 -0.7071 -0.7071 818.515 -64.1209)"/><rect x="440" y="136.028" width="16" height="24" fill="#3F3A34"/><rect x="465.448" y="125.509" width="16" height="24" fill="#3F3A34" transform="matrix(-0.7072 0.707 -0.707 -0.7072 905.493 -99.9755)"/><rect x="472" y="104.028" width="24" height="16" fill="#3F3A34"/><rect x="461.45" y="78.603" width="24" height="16" fill="#3F3A34" transform="matrix(-0.7071 0.7071 -0.7071 -0.7071 869.466 -186.94)"/><rect x="40" y="152.028" width="16" height="24" fill="#3F3A34"/><rect x="14.579" y="162.577" width="16" height="24" fill="#3F3A34" transform="matrix(-0.7072 0.707 -0.707 -0.7072 161.974 282.075)"/><rect x="0" y="192.028" width="24" height="16" fill="#3F3A34"/><rect x="10.535" y="217.472" width="24" height="16" fill="#3F3A34" transform="matrix(-0.7071 0.7071 -0.7071 -0.7071 197.902 368.97)"/><rect x="40" y="224.028" width="16" height="24" fill="#3F3A34"/><rect x="65.451" y="213.483" width="16" height="24" fill="#3F3A34" transform="matrix(-0.7072 0.707 -0.707 -0.7072 284.814 333.015)"/><rect x="72" y="192.028" width="24" height="16" fill="#3F3A34"/><rect x="61.451" y="166.571" width="24" height="16" fill="#3F3A34" transform="matrix(-0.7071 0.7071 -0.7071 -0.7071 248.828 246.075)"/><rect x="368" y="0.028" width="16" height="16" fill="#3F3A34"/><rect x="368" y="32.028" width="16" height="16" fill="#3F3A34"/><rect x="384" y="16.028" width="16" height="16" fill="#3F3A34"/><rect x="352" y="16.028" width="16" height="16" fill="#3F3A34"/><rect x="88" y="80.028" width="16" height="16" fill="#3F3A34"/><rect x="88" y="112.028" width="16" height="16" fill="#3F3A34"/><rect x="104" y="96.028" width="16" height="16" fill="#3F3A34"/><rect x="72" y="96.028" width="16" height="16" fill="#3F3A34"/><rect x="16" y="0.028" width="16" height="16" fill="#3F3A34"/><rect x="16" y="32.028" width="16" height="16" fill="#3F3A34"/><rect x="32" y="16.028" width="16" height="16" fill="#3F3A34"/><rect x="0" y="16.028" width="16" height="16" fill="#3F3A34"/></g><g></g><g></g><g></g><g></g><g></g><g></g><g></g><g></g><g></g><g></g><g></g><g></g><g></g><g></g><g></g></svg>