<svg viewBox="0 0 295.239 295.239" xmlns="http://www.w3.org/2000/svg" xmlns:xlink="http://www.w3.org/1999/xlink" id="Layer_1" overflow="hidden"><g><g><path d="M204.762 0.001 42.857 0.001 42.857 295.239 252.381 295.239 252.381 52.382Z" fill="#F9BA48"/><path d="M252.381 52.382 204.762 52.382 204.762 0.001 195.238 0.001 195.238 61.906 252.381 61.906Z" fill="#333333"/><path d="M271.429 100.001 261.905 100.001 108.081 100.001 72.367 123.811 108.081 147.621 261.905 147.621 271.429 147.621C284.558 147.621 295.239 136.94 295.239 123.811 295.239 110.682 284.557 100.001 271.429 100.001ZM104.762 113.658 104.762 133.958 89.538 123.811 104.762 113.658ZM261.905 138.096 114.286 138.096 114.286 128.572 247.619 128.572 247.619 119.048 114.286 119.048 114.286 109.524 261.905 109.524 261.905 138.096ZM271.429 138.096 271.429 109.525C279.305 109.525 285.715 115.935 285.715 123.811 285.715 131.687 279.305 138.096 271.429 138.096Z" fill="#333333"/><path d="M0 247.62 228.571 247.62 228.571 180.953 0 180.953 0 247.62ZM9.524 190.477 19.048 190.477 19.048 204.763 28.572 204.763 28.572 190.477 38.096 190.477 38.096 204.763 47.62 204.763 47.62 190.477 57.144 190.477 57.144 214.287 66.668 214.287 66.668 190.477 76.192 190.477 76.192 204.763 85.716 204.763 85.716 190.477 95.24 190.477 95.24 204.763 104.764 204.763 104.764 190.477 114.288 190.477 114.288 214.287 123.812 214.287 123.812 190.477 133.336 190.477 133.336 204.763 142.86 204.763 142.86 190.477 152.384 190.477 152.384 204.763 161.908 204.763 161.908 190.477 171.432 190.477 171.432 214.287 180.956 214.287 180.956 190.477 219.051 190.477 219.051 214.287 219.051 238.097 9.524 238.097 9.524 190.477Z" fill="#333333"/><path d="M204.762 200.001C196.886 200.001 190.476 206.411 190.476 214.287 190.476 222.163 196.886 228.573 204.762 228.573 212.638 228.573 219.048 222.163 219.048 214.287 219.048 206.411 212.638 200.001 204.762 200.001ZM204.762 219.049C202.138 219.049 200 216.916 200 214.287 200 211.658 202.138 209.525 204.762 209.525 207.386 209.525 209.524 211.658 209.524 214.287 209.524 216.915 207.386 219.049 204.762 219.049Z" fill="#333333"/><rect x="66.667" y="23.811" width="114.286" height="9.524" fill="#333333"/><rect x="66.667" y="47.62" width="114.286" height="9.524" fill="#333333"/><rect x="66.667" y="71.43" width="114.286" height="9.524" fill="#333333"/></g></g><g></g><g></g><g></g><g></g><g></g><g></g><g></g><g></g><g></g><g></g><g></g><g></g><g></g><g></g><g></g></svg>