<svg viewBox="0 0 496 496" xmlns="http://www.w3.org/2000/svg" xmlns:xlink="http://www.w3.org/1999/xlink" id="Capa_1" overflow="hidden"><path d="M376 336C367.864 336 360.304 338.472 353.976 342.664L309.904 298.592C319.608 286.736 325.992 272.064 327.592 256L344 256 344 240 327.592 240C325.992 223.936 319.608 209.264 309.904 197.408L353.976 153.336C360.304 157.528 367.864 160 376 160 398.056 160 416 142.056 416 120 416 97.944 398.056 80 376 80 353.944 80 336 97.944 336 120 336 128.136 338.472 135.696 342.664 142.024L298.592 186.096C286.736 176.392 272.064 170.008 256 168.408L256 152 240 152 240 168.408C223.936 170.008 209.264 176.392 197.408 186.096L153.336 142.024C157.528 135.696 160 128.136 160 120 160 97.944 142.056 80 120 80 97.944 80 80 97.944 80 120 80 142.056 97.944 160 120 160 128.136 160 135.696 157.528 142.024 153.336L186.096 197.408C176.392 209.264 170.008 223.936 168.408 240L152 240 152 256 168.408 256C170.008 272.064 176.392 286.736 186.096 298.592L142.024 342.664C135.696 338.472 128.136 336 120 336 97.944 336 80 353.944 80 376 80 398.056 97.944 416 120 416 142.056 416 160 398.056 160 376 160 367.864 157.528 360.304 153.336 353.976L197.408 309.904C209.264 319.608 223.936 325.992 240 327.592L240 344 256 344 256 327.592C272.064 325.992 286.736 319.608 298.592 309.904L342.664 353.976C338.472 360.304 336 367.864 336 376 336 398.056 353.944 416 376 416 398.056 416 416 398.056 416 376 416 353.944 398.056 336 376 336ZM376 96C389.232 96 400 106.768 400 120 400 133.232 389.232 144 376 144 362.768 144 352 133.232 352 120 352 106.768 362.768 96 376 96ZM120 144C106.768 144 96 133.232 96 120 96 106.768 106.768 96 120 96 133.232 96 144 106.768 144 120 144 133.232 133.232 144 120 144ZM248 184C283.288 184 312 212.712 312 248 312 283.288 283.288 312 248 312 212.712 312 184 283.288 184 248 184 212.712 212.712 184 248 184ZM120 400C106.768 400 96 389.232 96 376 96 362.768 106.768 352 120 352 133.232 352 144 362.768 144 376 144 389.232 133.232 400 120 400ZM376 400C362.768 400 352 389.232 352 376 352 362.768 362.768 352 376 352 389.232 352 400 362.768 400 376 400 389.232 389.232 400 376 400Z" fill="#333333"/><g><path d="M248 160C203.888 160 168 124.112 168 80 168 35.888 203.888 0 248 0 292.112 0 328 35.888 328 80 328 124.112 292.112 160 248 160Z" fill="#FFA64D"/><path d="M80 328C35.888 328 0 292.112 0 248 0 203.888 35.888 168 80 168 124.112 168 160 203.888 160 248 160 292.112 124.112 328 80 328Z" fill="#FFA64D"/><path d="M248 496C203.888 496 168 460.112 168 416 168 371.888 203.888 336 248 336 292.112 336 328 371.888 328 416 328 460.112 292.112 496 248 496Z" fill="#FFA64D"/><path d="M416 328C371.888 328 336 292.112 336 248 336 203.888 371.888 168 416 168 460.112 168 496 203.888 496 248 496 292.112 460.112 328 416 328Z" fill="#FFA64D"/></g><g><rect x="207.984" y="208" width="80" height="16" fill="#333333"/><rect x="207.984" y="240" width="80" height="16" fill="#333333"/><rect x="207.984" y="272" width="48" height="16" fill="#333333"/><rect x="271.984" y="272" width="16" height="16" fill="#333333"/><rect x="239.984" y="40" width="16" height="16" fill="#333333"/><rect x="271.984" y="40" width="16" height="16" fill="#333333"/><rect x="207.984" y="40" width="16" height="16" fill="#333333"/><rect x="207.984" y="72" width="80" height="16" fill="#333333"/><rect x="223.984" y="104" width="48" height="16" fill="#333333"/><rect x="39.984" y="240" width="16" height="16" fill="#333333"/><rect x="39.984" y="208" width="16" height="16" fill="#333333"/><rect x="39.984" y="272" width="16" height="16" fill="#333333"/><rect x="71.984" y="208" width="16" height="80" fill="#333333"/><rect x="103.984" y="224" width="16" height="48" fill="#333333"/><rect x="239.984" y="440" width="16" height="16" fill="#333333"/><rect x="207.984" y="440" width="16" height="16" fill="#333333"/><rect x="271.984" y="440" width="16" height="16" fill="#333333"/><rect x="207.984" y="408" width="80" height="16" fill="#333333"/><rect x="223.984" y="376" width="48" height="16" fill="#333333"/><rect x="439.984" y="240" width="16" height="16" fill="#333333"/><rect x="439.984" y="272" width="16" height="16" fill="#333333"/><rect x="439.984" y="208" width="16" height="16" fill="#333333"/><rect x="407.984" y="208" width="16" height="80" fill="#333333"/><rect x="375.984" y="224" width="16" height="48" fill="#333333"/></g><g></g><g></g><g></g><g></g><g></g><g></g><g></g><g></g><g></g><g></g><g></g><g></g><g></g><g></g><g></g></svg>