<svg viewBox="0 0 496 496" xmlns="http://www.w3.org/2000/svg" xmlns:xlink="http://www.w3.org/1999/xlink" id="Layer_1" overflow="hidden"><rect x="96" y="0" width="304" height="376" fill="#FFA64D"/><g><path d="M464 416 464 168C464 145.944 446.056 128 424 128L400 128 400 144 424 144C437.232 144 448 154.768 448 168L448 416 432 416 432 160 400 160 400 176 416 176 416 416 80 416 80 176 96 176 96 160 64 160 64 416 48 416 48 168C48 154.768 58.768 144 72 144L96 144 96 128 72 128C49.944 128 32 145.944 32 168L32 416 0 416 0 463.304C0 481.336 14.672 496 32.704 496L463.296 496C481.328 496 496 481.336 496 463.304L496 416 464 416ZM208 432 288 432 288 448 208 448 208 432ZM480 463.304C480 472.504 472.504 480 463.296 480L32.704 480C23.496 480 16 472.504 16 463.304L16 432 192 432 192 464 304 464 304 432 480 432 480 463.304Z" fill="#333333"/><path d="M248 224C300.936 224 344 180.936 344 128 344 75.064 300.936 32 248 32 195.064 32 152 75.064 152 128 152 180.936 195.064 224 248 224ZM208 197.176 208 184C208 161.944 225.944 144 248 144 270.056 144 288 161.944 288 184L288 197.176C276.216 204.016 262.576 208 248 208 233.424 208 219.784 204.016 208 197.176ZM224 104C224 90.768 234.768 80 248 80 261.232 80 272 90.768 272 104 272 117.232 261.232 128 248 128 234.768 128 224 117.232 224 104ZM248 48C292.112 48 328 83.888 328 128 328 150.32 318.792 170.512 304 185.032L304 184C304 162.416 291.704 143.68 273.768 134.336 282.4 126.992 288 116.192 288 104 288 81.944 270.056 64 248 64 225.944 64 208 81.944 208 104 208 116.192 213.6 126.992 222.232 134.336 204.296 143.68 192 162.416 192 184L192 185.032C177.208 170.504 168 150.32 168 128 168 83.888 203.888 48 248 48Z" fill="#333333"/><path d="M240 232 128 232 128 312 240 312 240 232ZM224 296 144 296 144 248 224 248 224 296Z" fill="#333333"/><rect x="128" y="328" width="112" height="16" fill="#333333"/><path d="M368 232 256 232 256 312 368 312 368 232ZM352 296 272 296 272 248 352 248 352 296Z" fill="#333333"/><rect x="352" y="328" width="16" height="16" fill="#333333"/><rect x="256" y="328" width="80" height="16" fill="#333333"/></g><g></g><g></g><g></g><g></g><g></g><g></g><g></g><g></g><g></g><g></g><g></g><g></g><g></g><g></g><g></g></svg>