<svg viewBox="0 0 496 496" xmlns="http://www.w3.org/2000/svg" xmlns:xlink="http://www.w3.org/1999/xlink" id="Capa_1" overflow="hidden"><path d="M248 184C248 148.8 263.248 117.24 287.392 95.288L287.384 95.056 265.544 73.208 245.2 93.552C238.44 89.888 231.352 86.952 224.008 84.752L224.008 56 160.008 56 160.008 84.752C152.664 86.944 145.568 89.888 138.816 93.552L118.472 73.208 73.216 118.464 93.56 138.808C89.896 145.568 86.96 152.656 84.76 160L56 160 56 224 84.752 224C86.944 231.344 89.888 238.44 93.552 245.192L73.208 265.536 118.464 310.784 138.808 290.448C145.568 294.112 152.656 297.048 160 299.248L160 328 224 328 224 299.248C231.344 297.056 238.44 294.112 245.192 290.448L265.536 310.784 295.624 280.704 295.568 279.512C266.72 257.6 248 223.032 248 184Z" fill="#FFA64D"/><g><path d="M496 184C496 118.848 447.04 65.024 384 57.112L384 0 40 0C17.944 0 0 17.944 0 40L0 432C0 454.056 17.944 472 40 472L326.496 472C334.808 486.32 350.28 496 368 496 394.472 496 416 474.472 416 448L416 376 432 376 432 360 416 360 416 344 432 344 432 328 416 328 416 302.576C462.848 283.544 496 237.6 496 184ZM480 184C480 245.76 429.76 296 368 296 306.24 296 256 245.76 256 184 256 122.24 306.24 72 368 72 429.76 72 480 122.24 480 184ZM40 16 368 16 368 56C307.656 56 257.056 98.032 243.616 154.32 231.96 138.4 213.192 128 192 128 156.712 128 128 156.712 128 192 128 227.288 156.712 256 192 256 215.264 256 235.608 243.48 246.808 224.872 258.752 260.184 285.648 288.624 320 302.576L320 328 304 328 304 344 320 344 320 360 304 360 304 376 320 376 320 392 40 392C30.96 392 22.704 395.128 16 400.208L16 40C16 26.768 26.768 16 40 16ZM240 192C240 218.472 218.472 240 192 240 165.528 240 144 218.472 144 192 144 165.528 165.528 144 192 144 218.472 144 240 165.528 240 192ZM40 456C26.768 456 16 445.232 16 432 16 418.768 26.768 408 40 408L320 408 320 448C320 450.728 320.28 453.392 320.72 456L40 456ZM400 448C400 465.648 385.648 480 368 480 350.352 480 336 465.648 336 448L336 376 400 376 400 448ZM400 360 336 360 336 344 400 344 400 360ZM400 328 336 328 336 307.784C346.248 310.44 356.936 312 368 312 379.064 312 389.752 310.44 400 307.784L400 328Z" fill="#333333"/><path d="M288 184C288 228.112 323.888 264 368 264 412.112 264 448 228.112 448 184 448 139.888 412.112 104 368 104 323.888 104 288 139.888 288 184ZM432 184C432 219.288 403.288 248 368 248 332.712 248 304 219.288 304 184 304 148.712 332.712 120 368 120 403.288 120 432 148.712 432 184Z" fill="#333333"/><rect x="240" y="344" width="16" height="16" fill="#333333"/><rect x="160" y="344" width="64" height="16" fill="#333333"/><rect x="128" y="344" width="16" height="16" fill="#333333"/></g><g></g><g></g><g></g><g></g><g></g><g></g><g></g><g></g><g></g><g></g><g></g><g></g><g></g><g></g><g></g></svg>