<?xml version="1.0" encoding="UTF-8" standalone="no"?>
<svg
   xmlns:dc="http://purl.org/dc/elements/1.1/"
   xmlns:cc="http://creativecommons.org/ns#"
   xmlns:rdf="http://www.w3.org/1999/02/22-rdf-syntax-ns#"
   xmlns:svg="http://www.w3.org/2000/svg"
   xmlns="http://www.w3.org/2000/svg"
   xmlns:sodipodi="http://sodipodi.sourceforge.net/DTD/sodipodi-0.dtd"
   xmlns:inkscape="http://www.inkscape.org/namespaces/inkscape"
   version="1.0"
   width="625.29999pt"
   height="576.54559pt"
   viewBox="0 0 625.29999 576.54559"
   preserveAspectRatio="xMidYMid meet"
   id="svg8"
   sodipodi:docname="logo-nodevid.svg"
   inkscape:version="0.92.4 (5da689c313, 2019-01-14)">
  <defs
     id="defs12" />
  <sodipodi:namedview
     pagecolor="#ffffff"
     bordercolor="#666666"
     borderopacity="1"
     objecttolerance="10"
     gridtolerance="10"
     guidetolerance="10"
     inkscape:pageopacity="0"
     inkscape:pageshadow="2"
     inkscape:window-width="1680"
     inkscape:window-height="991"
     id="namedview10"
     showgrid="false"
     fit-margin-top="10"
     fit-margin-left="10"
     fit-margin-right="10"
     fit-margin-bottom="10"
     inkscape:zoom="0.3025641"
     inkscape:cx="422.93333"
     inkscape:cy="390.86032"
     inkscape:window-x="0"
     inkscape:window-y="45"
     inkscape:window-maximized="1"
     inkscape:current-layer="svg8" />
  <metadata
     id="metadata2">
Created by potrace 1.15, written by Peter Selinger 2001-2017
<rdf:RDF>
  <cc:Work
     rdf:about="">
    <dc:format>image/svg+xml</dc:format>
    <dc:type
       rdf:resource="http://purl.org/dc/dcmitype/StillImage" />
    <dc:title></dc:title>
  </cc:Work>
</rdf:RDF>
</metadata>
  <g
     transform="matrix(0.1,0,0,-0.1,-14.8,575.90035)"
     id="g6"
     style="fill:#000000;stroke:none">
    <path
       d="M 1287,4632 248,3605 255,1850 c 4,-965 7,-1755 8,-1756 7,-5 2207,33 2211,37 4,3 12,767 18,1698 l 12,1691 377,370 377,370 416,-407 416,-406 v -181 c 0,-183 -15,-1463 -24,-2006 -3,-162 -2,-289 1,-282 3,8 35,12 107,12 57,0 124,3 150,6 l 46,7 v 1311 1311 l -435,435 -436,436 346,343 c 190,188 349,341 354,339 5,-2 413,-396 907,-877 l 897,-875 -7,-640 c -3,-353 -9,-899 -13,-1213 l -6,-573 h 145 146 l 6,212 c 3,117 10,700 16,1296 l 11,1083 -308,303 c -985,968 -1759,1726 -1764,1726 -3,0 -217,-204 -475,-454 l -469,-455 -475,475 c -261,261 -477,474 -480,473 -3,0 -472,-462 -1043,-1027 z m 1339,247 c 176,-171 340,-332 367,-358 l 47,-46 -438,-423 -439,-423 5,-1601 5,-1601 -484,6 c -266,4 -620,10 -785,14 l -302,6 -6,406 c -3,223 -8,908 -11,1521 l -5,1115 858,847 c 471,466 860,848 863,848 4,0 150,-140 325,-311 z"
       id="path4"
       inkscape:connector-curvature="0" />
  </g>
</svg>
