<?xml version="1.0" encoding="UTF-8" standalone="no"?>
<svg
   xmlns:dc="http://purl.org/dc/elements/1.1/"
   xmlns:cc="http://creativecommons.org/ns#"
   xmlns:rdf="http://www.w3.org/1999/02/22-rdf-syntax-ns#"
   xmlns:svg="http://www.w3.org/2000/svg"
   xmlns="http://www.w3.org/2000/svg"
   xmlns:sodipodi="http://sodipodi.sourceforge.net/DTD/sodipodi-0.dtd"
   xmlns:inkscape="http://www.inkscape.org/namespaces/inkscape"
   version="1.0"
   width="625.29999pt"
   height="576.54559pt"
   viewBox="0 0 625.29999 576.54559"
   preserveAspectRatio="xMidYMid meet"
   id="svg8"
   sodipodi:docname="logo-nodevid-white.svg"
   inkscape:version="0.92.4 (5da689c313, 2019-01-14)">
  <defs
     id="defs12" />
  <sodipodi:namedview
     pagecolor="#ffffff"
     bordercolor="#666666"
     borderopacity="1"
     objecttolerance="10"
     gridtolerance="10"
     guidetolerance="10"
     inkscape:pageopacity="0"
     inkscape:pageshadow="2"
     inkscape:window-width="1680"
     inkscape:window-height="991"
     id="namedview10"
     showgrid="false"
     fit-margin-top="10"
     fit-margin-left="10"
     fit-margin-right="10"
     fit-margin-bottom="10"
     inkscape:zoom="0.3025641"
     inkscape:cx="-223.21074"
     inkscape:cy="390.86032"
     inkscape:window-x="0"
     inkscape:window-y="45"
     inkscape:window-maximized="1"
     inkscape:current-layer="svg8" />
  <metadata
     id="metadata2">
Created by potrace 1.15, written by Peter Selinger 2001-2017
<rdf:RDF>
  <cc:Work
     rdf:about="">
    <dc:format>image/svg+xml</dc:format>
    <dc:type
       rdf:resource="http://purl.org/dc/dcmitype/StillImage" />
    <dc:title></dc:title>
  </cc:Work>
</rdf:RDF>
</metadata>
  <path
     style="fill:#ffffff;stroke:none;stroke-width:0.1;fill-opacity:1"
     inkscape:connector-curvature="0"
     id="path4"
     d="m 113.9,112.70035 -103.9,102.7 0.7,175.5 c 0.4,96.5 0.7,175.5 0.8,175.6 0.7,0.5 220.7,-3.3 221.1,-3.7 0.4,-0.3 1.2,-76.7 1.8,-169.8 l 1.2,-169.1 37.7,-37 37.7,-37 41.6,40.7 41.6,40.6 v 18.1 c 0,18.3 -1.5,146.3 -2.4,200.6 -0.3,16.2 -0.2,28.9 0.1,28.2 0.3,-0.8 3.5,-1.2 10.7,-1.2 5.7,0 12.4,-0.3 15,-0.6 l 4.6,-0.7 v -131.1 -131.1 l -43.5,-43.5 -43.6,-43.6 34.6,-34.3 c 19,-18.8 34.9,-34.1 35.4,-33.9 0.5,0.2 41.3,39.6 90.7,87.7 l 89.7,87.5 -0.7,64 c -0.3,35.3 -0.9,89.9 -1.3,121.3 l -0.6,57.3 h 14.5 14.6 l 0.6,-21.2 c 0.3,-11.7 1,-70 1.6,-129.6 l 1.1,-108.3 -30.8,-30.3 c -98.5,-96.8 -175.9,-172.6 -176.4,-172.6 -0.3,0 -21.7,20.4 -47.5,45.4 l -46.9,45.5 -47.5,-47.5 c -26.1,-26.1 -47.7,-47.4 -48,-47.3 -0.3,0 -47.2,46.2 -104.3,102.7 z m 133.9,-24.7 c 17.6,17.1 34,33.2 36.7,35.8 l 4.7,4.6 -43.8,42.3 -43.9,42.3 0.5,160.1 0.5,160.1 -48.4,-0.6 c -26.6,-0.4 -62,-1 -78.5,-1.4 l -30.2,-0.6 -0.6,-40.6 c -0.3,-22.3 -0.8,-90.8 -1.1,-152.1 l -0.5,-111.5 85.8,-84.7 c 47.1,-46.6 86,-84.8 86.3,-84.8 0.4,0 15,14 32.5,31.1 z" />
</svg>
