<svg viewBox="0 0 295.238 295.238" xmlns="http://www.w3.org/2000/svg" xmlns:xlink="http://www.w3.org/1999/xlink" id="Layer_1" overflow="hidden"><g><g><path d="M278.571 9.525C274.952 9.525 271.623 10.715 268.885 12.682 265.942 7.949 260.733 4.763 254.761 4.763 251.142 4.763 247.813 5.953 245.075 7.92 242.133 3.187 236.924 0.001 230.952 0.001 221.762 0.001 214.285 7.477 214.285 16.668L214.285 71.291C202.804 65.058 190.533 61.905 177.69 61.905 151.219 61.905 131.995 73.8 120.533 83.781 116.295 87.467 114.028 92.81 114.309 98.438 114.595 104.105 117.414 109.248 122.052 112.528 128.966 117.418 138.309 116.914 144.766 111.309 151.428 105.528 162.542 98.642 177.69 98.642 196.847 98.642 209.69 112.618 214.285 118.566L214.285 167.152C209.69 173.1 196.847 187.071 177.69 187.071 162.538 187.071 151.423 180.185 144.766 174.414 138.304 168.795 128.956 168.309 122.052 173.19 117.414 176.471 114.59 181.614 114.309 187.28 114.028 192.909 116.295 198.251 120.533 201.937 132 211.913 151.219 223.808 177.69 223.808 185.271 223.808 192.747 222.675 200 220.437L200 295.237 280.952 295.237 280.952 203.47C289.828 197.251 295.238 187.037 295.238 176.189L295.238 26.189C295.238 17.001 287.762 9.525 278.571 9.525ZM285.714 176.191C285.714 184.601 281.147 192.481 273.795 196.758L271.428 198.134 271.428 285.715 209.523 285.715 209.523 206.572 202.956 209.267C194.837 212.6 186.337 214.286 177.689 214.286 154.165 214.286 137.018 203.667 126.784 194.753 124.765 192.991 123.684 190.443 123.817 187.753 123.955 185.02 125.312 182.539 127.55 180.958 130.864 178.606 135.379 178.868 138.521 181.601 146.402 188.439 159.597 196.587 177.688 196.587 202.817 196.587 218.65 177.401 222.902 171.516L223.807 170.278 223.807 115.44 222.902 114.192C218.65 108.311 202.816 89.116 177.688 89.116 159.607 89.116 146.407 97.268 138.521 104.111 135.383 106.835 130.873 107.097 127.55 104.749 125.312 103.168 123.955 100.687 123.817 97.954 123.684 95.268 124.765 92.716 126.784 90.954 137.022 82.049 154.165 71.43 177.689 71.43 191.399 71.43 204.408 75.559 216.365 83.706L223.808 88.782 223.808 16.668C223.808 12.73 227.013 9.525 230.951 9.525 234.889 9.525 238.094 12.73 238.094 16.668L238.094 21.43 238.094 114.287 247.618 114.287 247.618 21.43C247.618 17.492 250.823 14.287 254.761 14.287 258.699 14.287 261.904 17.492 261.904 21.43L261.904 26.192 261.904 114.287 271.428 114.287 271.428 26.191C271.428 22.253 274.633 19.048 278.571 19.048 282.509 19.048 285.714 22.253 285.714 26.191L285.714 176.191Z" fill="#333333"/><path d="M100 200.001 71.662 200.001 74.581 193.33C75.652 190.892 76.191 188.33 76.191 185.716 76.191 175.211 67.648 166.668 57.143 166.668 46.638 166.668 38.095 175.211 38.095 185.716 38.095 188.33 38.633 190.892 39.705 193.33L42.624 200.001 14.286 200.001C6.41 200.001 0 193.591 0 185.715L0 157.377 6.671 160.296C9.109 161.367 11.671 161.906 14.285 161.906 24.79 161.906 33.333 153.363 33.333 142.858 33.333 132.353 24.79 123.81 14.285 123.81 11.671 123.81 9.109 124.348 6.671 125.42L0 128.339 0 100.001C0 92.125 6.41 85.715 14.286 85.715L28.976 85.715C28.705 84.148 28.571 82.558 28.571 80.953 28.571 65.196 41.385 52.382 57.142 52.382 72.899 52.382 85.713 65.196 85.713 80.953 85.713 82.558 85.58 84.148 85.308 85.715L100 85.715C107.876 85.715 114.286 92.125 114.286 100.001L114.286 114.691C115.853 114.42 117.443 114.286 119.048 114.286 134.805 114.286 147.619 127.1 147.619 142.857 147.619 158.614 134.805 171.428 119.048 171.428 117.443 171.428 115.853 171.295 114.286 171.023L114.286 185.713C114.286 193.591 107.876 200.001 100 200.001Z" fill="#F9BA48"/></g></g><g></g><g></g><g></g><g></g><g></g><g></g><g></g><g></g><g></g><g></g><g></g><g></g><g></g><g></g><g></g></svg>