<svg viewBox="0 0 496 496" xmlns="http://www.w3.org/2000/svg" xmlns:xlink="http://www.w3.org/1999/xlink" id="Layer_1" overflow="hidden"><g><rect x="256" y="276" width="48" height="64" fill="#FFA64D"/><rect x="128" y="276" width="48" height="64" fill="#FFA64D"/></g><g><rect x="233.186" y="181.112" width="31.743" height="15.999" fill="#3F3A34" transform="matrix(-0.9966 0.082 -0.082 -0.9966 512.784 357.163)"/><rect x="169.291" y="186.386" width="31.832" height="16" fill="#3F3A34" transform="matrix(-0.9968 0.0801 -0.0801 -0.9968 385.389 373.313)"/><path d="M128 156 144 156 144 180 160 180 160 156 176 156 176 140 128 140Z" fill="#3F3A34"/><path d="M192 156 208 156 208 180 224 180 224 156 240 156 240 140 192 140Z" fill="#3F3A34"/><path d="M304 140 256 140 256 156 272 156 272 180 288 180 288 156 304 156Z" fill="#3F3A34"/><path d="M87.736 239.776 74.76 230.416C89.52 209.944 111.224 195.96 135.864 191.04L139.008 206.728C118.328 210.856 100.128 222.592 87.736 239.776Z" fill="#3F3A34"/><path d="M296 228 48 228 48 212 0 212 0 292 48 292 48 276 56.832 276C56.312 280.152 56 284.336 56 288.544 56 343.384 100.616 388 155.456 388L296 388C340.112 388 376 352.112 376 308 376 263.888 340.112 228 296 228ZM32 276 16 276 16 228 32 228 32 276ZM296 372 155.456 372C109.44 372 72 334.56 72 288.544 72 284.32 72.432 280.136 73.056 276L90.856 276C88.968 281.968 88 288.224 88 294.552 88 328.44 115.56 356 149.448 356L288 356C314.472 356 336 334.472 336 308 336 281.528 314.472 260 288 260L48 260 48 244 296 244C331.288 244 360 272.712 360 308 360 343.288 331.288 372 296 372ZM104 294.552C104 288.128 105.352 281.792 107.936 276L288 276C305.648 276 320 290.352 320 308 320 325.648 305.648 340 288 340L149.448 340C124.392 340 104 319.616 104 294.552Z" fill="#3F3A34"/><path d="M496 332 467.904 332 465.496 328.664C465.12 328.136 426.4 275.48 351.2 267.96L352.792 252.04C424.92 259.248 465.584 303.288 475.92 316L480 316 480 124 475.92 124C465.584 136.712 424.92 180.752 352.792 187.96 338.152 189.424 319.224 191.152 298.064 193.008L296.672 177.072C317.752 175.224 336.6 173.504 351.192 172.04 426.384 164.528 465.104 111.872 465.488 111.336L467.88 108.016 496 108 496 332Z" fill="#3F3A34"/><path d="M352.816 218.352 351.192 202.432C419.944 195.448 450.08 166.6 450.376 166.312L461.648 177.664C460.296 179.008 427.712 210.736 352.816 218.352Z" fill="#3F3A34"/><path d="M320 220 320 204C325.4 204 330.568 203.832 335.608 203.592L336.392 219.576C331.104 219.832 325.664 220 320 220Z" fill="#3F3A34"/></g><g><rect x="128" y="172" width="48" height="56" fill="#FFA64D"/><rect x="192" y="276" width="48" height="64" fill="#FFA64D"/><rect x="192" y="172" width="48" height="56" fill="#FFA64D"/><rect x="256" y="172" width="48" height="56" fill="#FFA64D"/></g><g></g><g></g><g></g><g></g><g></g><g></g><g></g><g></g><g></g><g></g><g></g><g></g><g></g><g></g><g></g></svg>