<svg viewBox="0 0 291.839 291.839" xmlns="http://www.w3.org/2000/svg" xmlns:xlink="http://www.w3.org/1999/xlink" id="Layer_1" overflow="hidden"><g><g><rect x="3.296" y="210.932" width="145.84" height="9.375" fill="#F9BA48" transform="matrix(0.7071 -0.7071 0.7071 0.7071 -130.143 117.046)"/><circle cx="254.339" cy="253.122" r="37.5" fill="#F9BA48"/><path d="M259.565 32.256C236.1 8.795 203.545-2.76 170.362 0.564 119.873 5.603 78.675 45.77 72.408 96.067 70.116 114.489 72.258 132.461 78.778 149.481 82.05 158.022 79.95 167.758 73.43 174.278L68.213 179.495 0 247.708 1.88 250.849C11.475 266.838 24.999 280.362 40.988 289.957L44.129 291.837 117.563 218.407C124.088 211.882 133.815 209.787 142.355 213.059 159.394 219.589 177.385 221.717 195.778 219.425 246.07 213.148 286.233 171.95 291.272 121.461 294.59 88.225 283.031 55.712 259.565 32.256ZM87.53 146.13C84.886 139.221 83.072 132.133 82.008 124.919L102.399 145.31 89.593 158.116C89.639 154.084 89.02 150.02 87.53 146.13ZM42.717 279.981C30.408 271.994 19.837 261.423 11.85 249.114L80.058 180.906 109.027 151.937 139.899 182.809 110.935 211.778 42.717 279.981ZM133.725 202.244 146.527 189.438 166.908 209.819C159.699 208.755 152.611 206.946 145.706 204.302 141.815 202.815 137.751 202.192 133.725 202.244ZM281.948 120.526C277.34 166.707 240.614 204.385 194.62 210.123 190.134 210.681 185.681 210.929 181.265 210.915L153.154 182.809 149.84 179.495 112.34 141.995 109.026 138.681 80.91 110.565C80.896 106.154 81.149 101.706 81.707 97.224 87.444 51.226 125.118 14.504 171.294 9.891 201.763 6.863 231.472 17.419 252.936 38.883 274.406 60.348 284.981 90.109 281.948 120.526Z" fill="#333333"/><rect x="32.086" y="248.434" width="13.256" height="9.375" fill="#333333" transform="matrix(0.7071 -0.7071 0.7071 0.7071 -167.644 101.512)"/><rect x="46.149" y="234.372" width="13.256" height="9.375" fill="#333333" transform="matrix(0.7071 -0.7071 0.7071 0.7071 -153.582 107.338)"/><rect x="60.212" y="220.309" width="13.256" height="9.375" fill="#333333" transform="matrix(0.7071 -0.7071 0.7071 0.7071 -139.52 113.163)"/></g></g><g></g><g></g><g></g><g></g><g></g><g></g><g></g><g></g><g></g><g></g><g></g><g></g><g></g><g></g><g></g></svg>