<svg viewBox="0 0 497.376 497.376" xmlns="http://www.w3.org/2000/svg" xmlns:xlink="http://www.w3.org/1999/xlink" id="Layer_1" overflow="hidden"><path d="M392.964 205.728 433.612 72.632 409.964 13.128 357.108 49.264 310.652 201.376 305.14 201.376 305.14 106.152 313.732 63.2 265.14 4.88 216.548 63.2 225.14 106.152 225.14 201.376 212.724 201.376 173.724 0 63.764 21.288 98.756 202.016C84.164 204.984 73.14 217.912 73.14 233.376 73.14 248.248 83.372 260.664 97.14 264.24L97.14 465.688C97.14 483.16 111.356 497.376 128.828 497.376L353.452 497.376C370.924 497.376 385.14 483.16 385.14 465.688L385.14 264.24C398.908 260.664 409.14 248.248 409.14 233.376 409.14 221.512 402.58 211.256 392.964 205.728ZM415.156 78.288 377.564 201.376C377.42 201.376 377.284 201.376 377.14 201.376L360.836 201.376 399.852 73.616 415.156 78.288ZM411.564 60.472 382.18 51.496 402.476 37.624 411.564 60.472ZM369.244 64.272 384.556 68.944 344.108 201.376 327.38 201.376 369.244 64.272ZM241.14 113.376 289.14 113.376 289.14 129.376 241.14 129.376 241.14 113.376ZM265.14 29.872 296.548 67.552 290.588 97.376 273.14 97.376 273.14 73.376 257.14 73.376 257.14 97.376 239.692 97.376 233.732 67.552 265.14 29.872ZM241.14 145.376 289.14 145.376 289.14 201.376 241.14 201.376 241.14 145.376ZM161.052 18.752 196.428 201.376 114.94 201.376 112.94 191.04 136.5 186.472 133.452 170.768 109.892 175.328 106.852 159.608 146.124 152 143.076 136.296 103.804 143.896 100.764 128.184 124.332 123.616 121.284 107.912 97.724 112.472 94.684 96.76 133.956 89.152 130.908 73.448 91.644 81.056 88.596 65.376 112.156 60.808 109.108 45.104 85.548 49.664 82.508 33.952 161.052 18.752ZM353.452 481.376 128.828 481.376C120.18 481.376 113.14 474.336 113.14 465.688L113.14 265.376 369.14 265.376 369.14 465.688C369.14 474.336 362.1 481.376 353.452 481.376ZM377.14 249.376 105.14 249.376C96.316 249.376 89.14 242.2 89.14 233.376 89.14 224.552 96.316 217.376 105.14 217.376L215.82 217.376 225.14 217.376 305.14 217.376 377.14 217.376C378.316 217.376 379.604 217.568 381.18 217.984L381.796 218.144C388.34 220.16 393.14 226.184 393.14 233.376 393.14 242.2 385.964 249.376 377.14 249.376Z" fill="#333333"/><rect x="137.14" y="313.376" width="208" height="88" fill="#F9BA48"/><g></g><g></g><g></g><g></g><g></g><g></g><g></g><g></g><g></g><g></g><g></g><g></g><g></g><g></g><g></g></svg>