<svg viewBox="0 0 497.616 497.616" xmlns="http://www.w3.org/2000/svg" xmlns:xlink="http://www.w3.org/1999/xlink" id="Capa_1" overflow="hidden"><circle cx="248.808" cy="201.616" r="120" fill="#FFA64D"/><g><rect x="208.808" y="81.616" width="16" height="16" fill="#333333"/><rect x="240.808" y="81.616" width="16" height="16" fill="#333333"/><rect x="272.808" y="81.616" width="16" height="16" fill="#333333"/><rect x="160.808" y="113.616" width="16" height="16" fill="#333333"/><rect x="192.808" y="113.616" width="16" height="16" fill="#333333"/><rect x="224.808" y="113.616" width="16" height="16" fill="#333333"/><rect x="256.808" y="113.616" width="16" height="16" fill="#333333"/><rect x="288.808" y="113.616" width="16" height="16" fill="#333333"/><rect x="320.808" y="113.616" width="16" height="16" fill="#333333"/><rect x="144.808" y="145.616" width="16" height="16" fill="#333333"/><rect x="176.808" y="145.616" width="16" height="16" fill="#333333"/><rect x="208.808" y="145.616" width="16" height="16" fill="#333333"/><rect x="240.808" y="145.616" width="16" height="16" fill="#333333"/><rect x="272.808" y="145.616" width="16" height="16" fill="#333333"/><rect x="304.808" y="145.616" width="16" height="16" fill="#333333"/><rect x="336.808" y="145.616" width="16" height="16" fill="#333333"/><rect x="128.808" y="177.616" width="16" height="16" fill="#333333"/><rect x="160.808" y="177.616" width="16" height="16" fill="#333333"/><rect x="192.808" y="177.616" width="16" height="16" fill="#333333"/><rect x="224.808" y="177.616" width="16" height="16" fill="#333333"/><rect x="256.808" y="177.616" width="16" height="16" fill="#333333"/><rect x="288.808" y="177.616" width="16" height="16" fill="#333333"/><rect x="320.808" y="177.616" width="16" height="16" fill="#333333"/><rect x="352.808" y="177.616" width="16" height="16" fill="#333333"/><rect x="144.808" y="209.616" width="16" height="16" fill="#333333"/><rect x="176.808" y="209.616" width="16" height="16" fill="#333333"/><rect x="208.808" y="209.616" width="16" height="16" fill="#333333"/><rect x="240.808" y="209.616" width="16" height="16" fill="#333333"/><rect x="272.808" y="209.616" width="16" height="16" fill="#333333"/><rect x="304.808" y="209.616" width="16" height="16" fill="#333333"/><rect x="336.808" y="209.616" width="16" height="16" fill="#333333"/><rect x="128.808" y="241.616" width="16" height="16" fill="#333333"/><rect x="160.808" y="241.616" width="16" height="16" fill="#333333"/><rect x="192.808" y="241.616" width="16" height="16" fill="#333333"/><rect x="224.808" y="241.616" width="16" height="16" fill="#333333"/><rect x="256.808" y="241.616" width="16" height="16" fill="#333333"/><rect x="288.808" y="241.616" width="16" height="16" fill="#333333"/><rect x="320.808" y="241.616" width="16" height="16" fill="#333333"/><rect x="352.808" y="241.616" width="16" height="16" fill="#333333"/><rect x="176.808" y="273.616" width="16" height="16" fill="#333333"/><rect x="208.808" y="273.616" width="16" height="16" fill="#333333"/><rect x="240.808" y="273.616" width="16" height="16" fill="#333333"/><rect x="272.808" y="273.616" width="16" height="16" fill="#333333"/><rect x="304.808" y="273.616" width="16" height="16" fill="#333333"/><rect x="192.808" y="305.616" width="16" height="16" fill="#333333"/><rect x="224.808" y="305.616" width="16" height="16" fill="#333333"/><rect x="256.808" y="305.616" width="16" height="16" fill="#333333"/><rect x="288.808" y="305.616" width="16" height="16" fill="#333333"/><path d="M447.464 206.056 450.424 201.616 447.464 197.176C447 196.48 439.856 186.032 425.944 178.2 437.344 167.016 441.624 155.136 441.84 154.504L443.576 149.424 439.536 145.896C439.032 145.456 429.376 137.312 413.912 133.32 422.048 119.584 423.008 106.96 423.064 106.128L423.408 100.808 418.624 98.44C417.864 98.064 406.464 92.576 390.504 92.76 394.776 77.384 392.552 64.96 392.424 64.296L391.384 59.032 386.12 57.992C385.456 57.872 373.032 55.632 357.648 59.912 357.832 43.944 352.352 32.536 351.984 31.784L349.616 27 344.296 27.344C343.464 27.4 330.848 28.352 317.104 36.496 313.12 21.032 304.968 11.384 304.528 10.88L301 6.84 295.92 8.576C295.28 8.792 283.408 13.072 272.216 24.472 264.392 10.552 253.944 3.416 253.248 2.952L248.808 0 244.368 2.96C243.672 3.424 233.224 10.568 225.392 24.48 214.208 13.08 202.328 8.792 201.696 8.584L196.616 6.848 193.088 10.888C192.648 11.392 184.504 21.048 180.512 36.504 166.776 28.36 154.152 27.408 153.32 27.352L148 27.008 145.632 31.792C145.256 32.544 139.784 43.952 139.968 59.92 124.592 55.64 112.168 57.88 111.496 58L106.232 59.04 105.192 64.304C105.064 64.968 102.84 77.384 107.112 92.768 91.144 92.584 79.744 98.072 78.992 98.448L74.208 100.816 74.552 106.136C74.608 106.968 75.56 119.584 83.704 133.328 68.24 137.312 58.592 145.464 58.08 145.904L54.04 149.432 55.776 154.512C55.992 155.152 60.272 167.024 71.672 178.216 57.752 186.04 50.616 196.488 50.152 197.184L47.192 201.616 50.152 206.056C50.616 206.752 57.76 217.2 71.672 225.032 60.272 236.216 55.984 248.096 55.776 248.728L54.04 253.808 58.08 257.336C58.584 257.776 68.24 265.92 83.704 269.912 75.56 283.648 74.608 296.272 74.552 297.104L74.208 302.424 78.992 304.792C79.736 305.16 90.776 310.472 106.336 310.472 106.592 310.472 106.872 310.432 107.128 310.424 102.832 325.824 105.064 338.272 105.192 338.928L106.232 344.192 111.496 345.232C111.848 345.296 115.456 345.984 121.056 345.984 126.072 345.984 132.688 345.424 139.968 343.392 139.808 359.312 145.256 370.688 145.632 371.432L148 376.216 153.32 375.872C154.152 375.816 166.768 374.864 180.512 366.72 184.496 382.184 192.648 391.832 193.088 392.336L196.616 396.376 201.696 394.64C202.32 394.432 213.792 390.328 224.808 379.384L224.808 428.456C211.6 412.112 191.416 401.616 168.808 401.616L64.808 401.616 64.808 409.616C64.808 449.32 97.104 481.616 136.808 481.616L224.808 481.616 224.808 497.616 272.808 497.616 272.808 481.616 360.808 481.616C400.512 481.616 432.808 449.32 432.808 409.616L432.808 401.616 360.808 401.616 360.808 417.616 416.24 417.616C412.352 444.72 388.976 465.616 360.808 465.616L273.376 465.616C277.264 438.512 300.64 417.616 328.808 417.616L344.808 417.616 344.808 401.616 328.808 401.616C306.2 401.616 286.016 412.112 272.808 428.456L272.808 379.384C283.816 390.328 295.288 394.44 295.92 394.648L301 396.384 304.528 392.344C304.968 391.84 313.112 382.184 317.104 366.728 330.84 374.864 343.464 375.824 344.296 375.88L349.616 376.224 351.984 371.44C352.36 370.688 357.808 359.32 357.648 343.4 364.928 345.432 371.544 345.992 376.56 345.992 382.16 345.992 385.768 345.304 386.12 345.24L391.384 344.2 392.424 338.936C392.552 338.272 394.784 325.832 390.488 310.432 390.744 310.432 391.032 310.48 391.28 310.48 406.84 310.48 417.88 305.168 418.624 304.8L423.408 302.432 423.064 297.112C423.008 296.28 422.056 283.664 413.912 269.92 429.376 265.936 439.024 257.784 439.536 257.344L443.576 253.816 441.84 248.736C441.624 248.096 437.344 236.224 425.944 225.032 439.856 217.2 447 206.752 447.464 206.056ZM136.808 465.616C108.64 465.616 85.272 444.72 81.376 417.616L168.808 417.616C196.976 417.616 220.344 438.512 224.24 465.616L136.808 465.616ZM408.976 171.576C405.376 170.704 401.52 170.096 397.408 169.832 396.32 164.744 394.96 159.752 393.376 154.864 396.816 152.568 399.856 150.112 402.544 147.552 411.984 148.576 419.6 151.944 424.152 154.64 421.552 159.24 416.64 165.968 408.976 171.576ZM352.808 289.072 352.808 273.616 336.808 273.616 336.808 289.616 352.312 289.616C347.408 295.376 342.048 300.744 336.264 305.616L320.808 305.616 320.808 316.784C299.896 329.904 275.264 337.616 248.808 337.616 222.352 337.616 197.72 329.904 176.808 316.784L176.808 305.616 161.352 305.616C155.56 300.744 150.208 295.376 145.304 289.616L160.808 289.616 160.808 273.616 144.808 273.616 144.808 289.072C129.784 271.24 119.336 249.496 115.056 225.616L128.808 225.616 128.808 209.616 113.216 209.616C113.056 206.952 112.808 204.32 112.808 201.616 112.808 187.696 114.928 174.272 118.832 161.616L128.808 161.616 128.808 145.616 125.016 145.616C127.536 140.072 130.432 134.736 133.64 129.616L144.808 129.616 144.808 114.16C153.936 103.328 164.76 94.008 176.808 86.448L176.808 97.616 192.808 97.616 192.808 81.616 184.944 81.616C204 71.432 225.728 65.616 248.808 65.616 271.888 65.616 293.616 71.432 312.672 81.616L304.808 81.616 304.808 97.616 320.808 97.616 320.808 86.448C332.856 94.008 343.68 103.32 352.808 114.16L352.808 129.616 363.976 129.616C367.192 134.736 370.08 140.072 372.6 145.616L368.808 145.616 368.808 161.616 378.784 161.616C382.688 174.272 384.808 187.696 384.808 201.616 384.808 204.32 384.56 206.952 384.4 209.616L368.808 209.616 368.808 225.616 382.56 225.616C378.28 249.496 367.832 271.232 352.808 289.072ZM248.816 383.216C243.592 378.176 235.376 368.032 233.312 352.832 238.408 353.352 243.576 353.616 248.808 353.616 254.04 353.616 259.216 353.352 264.312 352.832 262.248 368.064 254.048 378.184 248.816 383.216ZM387.408 139.52C383.12 129.992 377.872 121.024 371.8 112.656 386.112 106.704 399.064 108.784 406.072 110.8 404.32 117.872 399.624 130.112 387.408 139.52ZM372.504 95.504C368.888 96.568 365.176 98.008 361.416 99.88 357.968 96.072 354.344 92.448 350.536 89 352.408 85.24 353.84 81.536 354.904 77.92 363.6 74.08 371.88 73.184 377.16 73.256 377.224 78.552 376.336 86.824 372.504 95.504ZM337.76 78.624C329.392 72.552 320.416 67.304 310.896 63.016 320.312 50.76 332.544 46.08 339.616 44.336 341.64 51.36 343.712 64.312 337.76 78.624ZM295.792 26.272C298.488 30.824 301.856 38.448 302.88 47.88 300.32 50.568 297.856 53.608 295.568 57.048 290.68 55.464 285.696 54.104 280.6 53.016 280.336 48.904 279.728 45.048 278.856 41.44 284.456 33.784 291.184 28.864 295.792 26.272ZM248.8 20.016C254.024 25.056 262.24 35.2 264.304 50.4 259.208 49.88 254.04 49.616 248.808 49.616 243.576 49.616 238.4 49.88 233.304 50.4 235.368 35.168 243.568 25.048 248.8 20.016ZM201.824 26.272C206.432 28.872 213.16 33.784 218.76 41.448 217.888 45.048 217.28 48.904 217.016 53.016 211.928 54.104 206.936 55.464 202.048 57.048 199.752 53.608 197.296 50.568 194.736 47.88 195.76 38.44 199.128 30.824 201.824 26.272ZM157.992 44.352C165.064 46.112 177.304 50.8 186.712 63.024 177.184 67.312 168.216 72.56 159.848 78.632 153.904 64.312 155.976 51.36 157.992 44.352ZM142.704 77.92C143.768 81.536 145.2 85.24 147.072 89.008 143.264 92.456 139.64 96.08 136.192 99.888 132.432 98.016 128.72 96.576 125.104 95.512 121.272 86.824 120.384 78.544 120.44 73.264 126.048 73.288 134.096 74.12 142.704 77.92ZM125.816 112.664C119.744 121.032 114.496 130 110.208 139.528 97.952 130.112 93.28 117.88 91.528 110.808 98.56 108.784 111.504 106.72 125.816 112.664ZM73.464 154.632C78.016 151.936 85.64 148.568 95.072 147.544 97.76 150.104 100.8 152.568 104.24 154.856 102.656 159.744 101.296 164.728 100.208 169.824 96.096 170.088 92.24 170.696 88.632 171.568 80.976 165.968 76.056 159.24 73.464 154.632ZM97.592 186.12C97.072 191.216 96.808 196.384 96.808 201.616 96.808 206.848 97.072 212.024 97.592 217.12 82.36 215.056 72.24 206.856 67.208 201.624 72.24 196.4 82.392 188.184 97.592 186.12ZM88.64 231.656C92.24 232.528 96.096 233.136 100.208 233.4 101.296 238.488 102.656 243.48 104.24 248.368 100.8 250.664 97.76 253.12 95.072 255.68 85.632 254.656 78.016 251.288 73.464 248.592 76.064 243.992 80.976 237.264 88.64 231.656ZM91.544 292.432C93.304 285.36 97.992 273.12 110.216 263.712 114.504 273.24 119.752 282.208 125.824 290.576 111.512 296.528 98.56 294.448 91.544 292.432ZM120.448 329.976C120.392 324.664 121.288 316.344 125.152 307.624 128.736 306.568 132.4 305.104 136.12 303.264 139.584 307.104 143.24 310.76 147.08 314.224 145.208 317.984 143.776 321.688 142.712 325.304 134.008 329.144 125.712 330.008 120.448 329.976ZM159.856 324.608C168.224 330.68 177.2 335.928 186.72 340.216 177.304 352.472 165.072 357.144 158 358.896 155.976 351.872 153.904 338.92 159.856 324.608ZM201.824 376.96C199.128 372.408 195.76 364.784 194.736 355.352 197.296 352.664 199.76 349.624 202.048 346.184 206.936 347.768 211.92 349.128 217.016 350.216 217.28 354.328 217.888 358.184 218.76 361.792 213.16 369.448 206.432 374.368 201.824 376.96ZM256.808 481.616 240.808 481.616 240.808 473.616 240.808 397.504C242.768 399.16 244.136 400.112 244.368 400.272L248.808 403.232 253.248 400.272C253.48 400.12 254.848 399.168 256.808 397.504L256.808 473.616 256.808 481.616ZM295.792 376.96C291.184 374.36 284.456 369.448 278.856 361.784 279.728 358.184 280.336 354.328 280.6 350.216 285.688 349.128 290.68 347.768 295.568 346.184 297.864 349.624 300.32 352.664 302.88 355.352 301.856 364.792 298.488 372.408 295.792 376.96ZM339.624 358.88C332.552 357.12 320.312 352.432 310.904 340.208 320.432 335.92 329.4 330.672 337.768 324.6 343.712 338.92 341.64 351.872 339.624 358.88ZM377.168 329.976C371.696 329.928 363.544 329.112 354.912 325.312 353.848 321.696 352.416 317.992 350.544 314.232 354.384 310.76 358.032 307.112 361.496 303.272 365.216 305.12 368.88 306.584 372.464 307.632 376.328 316.352 377.224 324.672 377.168 329.976ZM371.8 290.568C377.872 282.2 383.12 273.224 387.408 263.704 399.664 273.12 404.336 285.352 406.088 292.424 399.064 294.456 386.112 296.52 371.8 290.568ZM424.152 248.6C419.6 251.288 411.976 254.664 402.544 255.688 399.856 253.128 396.816 250.664 393.376 248.376 394.96 243.488 396.32 238.504 397.408 233.408 401.52 233.144 405.376 232.536 408.984 231.664 416.64 237.264 421.56 243.992 424.152 248.6ZM400.024 217.112C400.544 212.016 400.808 206.848 400.808 201.616 400.808 196.384 400.544 191.208 400.024 186.112 415.256 188.176 425.376 196.376 430.408 201.608 425.376 206.824 415.224 215.048 400.024 217.112Z" fill="#333333"/></g><g></g><g></g><g></g><g></g><g></g><g></g><g></g><g></g><g></g><g></g><g></g><g></g><g></g><g></g><g></g></svg>